<?xml version="1.0" standalone="no"?>
<!DOCTYPE svg PUBLIC "-//W3C//DTD SVG 20010904//EN"
 "http://www.w3.org/TR/2001/REC-SVG-20010904/DTD/svg10.dtd">
<svg version="1.0" xmlns="http://www.w3.org/2000/svg"
 width="224.000000pt" height="229.000000pt" viewBox="0 0 224.000000 229.000000"
 preserveAspectRatio="xMidYMid meet">

<g transform="translate(0.000000,229.000000) scale(0.100000,-0.100000)"
fill="#000000" stroke="none">
<path d="M314 741 c-50 -23 -74 -69 -74 -143 0 -87 53 -148 130 -148 57 0 120
48 120 92 0 29 -37 22 -52 -9 -25 -52 -102 -56 -134 -8 -20 30 -23 101 -5 142
25 62 116 63 141 2 13 -30 50 -41 50 -14 0 76 -96 123 -176 86z"/>
<path d="M530 606 l0 -146 25 0 26 0 -3 143 c-3 139 -4 142 -25 145 -23 3 -23
3 -23 -142z"/>
<path d="M1240 700 c0 -47 -11 -63 -25 -40 -10 16 -81 11 -104 -7 -48 -39 -44
-143 6 -183 30 -24 58 -25 96 -6 15 8 27 11 27 5 0 -5 9 -9 20 -9 19 0 20 7
20 145 0 138 -1 145 -20 145 -17 0 -20 -7 -20 -50z m-34 -68 c54 -36 37 -142
-23 -142 -39 0 -63 27 -63 72 0 57 48 96 86 70z"/>
<path d="M1768 739 c-11 -6 -18 -22 -18 -39 0 -23 -5 -30 -20 -30 -11 0 -20
-7 -20 -15 0 -8 9 -15 20 -15 19 0 20 -7 20 -90 0 -83 1 -90 20 -90 19 0 20 7
20 90 0 89 0 90 25 90 16 0 25 6 25 15 0 9 -10 15 -26 15 -21 0 -25 4 -22 23
2 14 11 23 26 25 12 2 22 10 22 18 0 16 -46 19 -72 3z"/>
<path d="M653 655 c-52 -36 -52 -137 -1 -180 49 -42 131 -26 156 30 38 82 -8
165 -90 165 -24 0 -53 -7 -65 -15z m93 -23 c34 -22 41 -94 13 -129 -15 -18
-64 -17 -83 3 -20 20 -21 83 0 112 15 22 49 29 70 14z"/>
<path d="M860 581 c0 -68 4 -93 16 -105 22 -22 61 -30 88 -18 12 5 34 8 49 5
l27 -5 0 106 c0 99 -1 106 -20 106 -18 0 -20 -7 -20 -64 0 -88 -12 -116 -48
-116 -44 0 -52 16 -52 102 0 71 -2 78 -20 78 -19 0 -20 -7 -20 -89z"/>
<path d="M1342 650 c-41 -39 -22 -85 43 -101 57 -14 77 -36 50 -55 -25 -19
-38 -18 -68 6 -32 25 -47 25 -47 1 0 -26 23 -42 67 -47 47 -6 85 13 97 48 13
36 -14 66 -65 74 -47 8 -67 27 -49 49 18 21 46 19 69 -6 20 -22 41 -19 41 6 0
43 -100 60 -138 25z"/>
<path d="M1542 650 c-12 -12 -22 -25 -22 -30 0 -16 36 -12 50 5 18 21 57 19
70 -4 18 -34 12 -41 -40 -41 -57 0 -90 -24 -90 -64 0 -36 46 -69 85 -61 16 3
45 6 63 6 l32 -1 0 79 c0 101 -19 131 -84 131 -29 0 -49 -7 -64 -20z m108
-109 c0 -35 -43 -67 -74 -55 -21 8 -28 34 -15 50 13 15 89 19 89 5z"/>
<path d="M1889 641 c-24 -25 -29 -38 -29 -80 0 -74 30 -106 100 -106 42 0 55
4 71 24 10 13 19 27 19 32 0 15 -32 10 -45 -8 -17 -23 -74 -21 -91 2 -28 38
-18 45 61 45 l75 0 0 29 c0 17 -11 42 -26 60 -36 43 -93 44 -135 2z m105 -23
c24 -34 20 -38 -39 -38 -59 0 -68 10 -38 42 22 25 59 23 77 -4z"/>
</g>
</svg>
